# xmcd CD database file
#
# Track frame offsets:
#	150
#	16000
#	44120
#	59414
#	86215
#	102446
#	119692
#	147235
#	165841
#	185959
#	202125
#	226664
#	243211
#	264292
#	285457
#	308104
#	327272
#
# Disc length: 4653 seconds
#
# Revision: 0
# Processed by: cddbd v1.5.2PL0 Copyright (c) Steve Scherf et al.
# Submitted via: CDex 1.51
#
DISCID=f3122b11
DTITLE=Various Artist - Salsa Style - Latin Beats For Dancing Feets
DYEAR=1900
DGENRE=Salsa
TTITLE0=Quantic and Nickodemus - Mi Swing Es Tropical
TTITLE1=Joe Arroyo Y La Verdad - Rebelion
TTITLE2=Alex Wilson - Oh Kuri
TTITLE3=Cambalache - Vamanos Pa'l Monte
TTITLE4=Los Nemus Del Pacificio - Para La Luna
TTITLE5=Calle Real - Dime Que Me Quieres
TTITLE6=Brooklyn Funk Essentials - Mambo Con Dancehall
TTITLE7=Yuri Buenaventura feat. Faudel - Salsa Rai
TTITLE8=Los Van Van - Quien Te Quiere Te Hora Llorar
TTITLE9=Salsa Celtica - El Capitan
TTITLE10=Orquestra La Palabra - Careless Whispers
TTITLE11=Ivan Caceres Y Su Bongolandia - Merecumbe
TTITLE12=Sonora Carruseles - Micaela
TTITLE13=Pedro Conga Y Su Orquesta Internacional - Eso Me Gusta
TTITLE14=Puerto Rican Power - Juguete De Nadie
TTITLE15=Diego Gale - La Loteria
TTITLE16=Richie Ray and Bobby Cruz - Quim Bon Bori
EXTD=
EXTT0=
EXTT1=
EXTT2=
EXTT3=
EXTT4=
EXTT5=
EXTT6=
EXTT7=
EXTT8=
EXTT9=
EXTT10=
EXTT11=
EXTT12=
EXTT13=
EXTT14=
EXTT15=
EXTT16=
PLAYORDER=
